<svg xmlns="http://www.w3.org/2000/svg" width="1200" height="800" viewBox="0 0 1200 800" role="img" aria-labelledby="title desc">
  <title id="title">Energy service placeholder</title>
  <desc id="desc">Building with energy symbols and technical overlays.</desc>
  <rect width="1200" height="800" fill="#e9dfd1"/>
  <rect x="80" y="90" width="1040" height="620" fill="#f8f2e8" stroke="#cab49a" stroke-width="8"/>
  <rect x="260" y="210" width="420" height="420" fill="#b4885c"/>
  <rect x="730" y="250" width="220" height="380" fill="#9b6f44"/>
  <rect x="320" y="270" width="120" height="110" fill="#f4eadf"/>
  <rect x="500" y="270" width="120" height="110" fill="#f4eadf"/>
  <rect x="320" y="420" width="120" height="110" fill="#f4eadf"/>
  <rect x="500" y="420" width="120" height="110" fill="#f4eadf"/>
  <polygon points="860,180 895,250 975,260 915,315 930,395 860,360 790,395 805,315 745,260 825,250" fill="#5a8b4c"/>
  <line x1="860" y1="110" x2="860" y2="170" stroke="#476f3d" stroke-width="10"/>
  <line x1="820" y1="130" x2="840" y2="180" stroke="#476f3d" stroke-width="10"/>
  <line x1="900" y1="130" x2="880" y2="180" stroke="#476f3d" stroke-width="10"/>
</svg>
